<?xml version="1.0" encoding="utf-8"?>
<!-- Generator: Adobe Illustrator 23.0.1, SVG Export Plug-In . SVG Version: 6.00 Build 0)  -->
<svg version="1.1" id="Layer_1" xmlns="http://www.w3.org/2000/svg" xmlns:xlink="http://www.w3.org/1999/xlink" x="0px" y="0px"
	 viewBox="0 0 24.2 22.41" style="enable-background:new 0 0 24.2 22.41;" xml:space="preserve">
<style type="text/css">
	.st0{fill:#FFFFFF;}
</style>
<g>
	<path class="st0" d="M12.86,10.21v-0.03c-0.01,0.01-0.01,0.02-0.02,0.03H12.86z"/>
	<path class="st0" d="M20.73,1.01H3.46c-0.83,0-1.5,0.65-1.5,1.46v17.47c0,0.81,0.67,1.46,1.5,1.46h17.27c0.83,0,1.5-0.65,1.5-1.46
		V2.47C22.23,1.67,21.56,1.01,20.73,1.01z M8.11,18.08H5.05V8.87h3.06V18.08z M6.58,7.62H6.56c-1.03,0-1.69-0.71-1.69-1.59
		c0-0.9,0.68-1.59,1.73-1.59c1.05,0,1.69,0.69,1.71,1.59C8.31,6.91,7.65,7.62,6.58,7.62z M19.14,18.08h-3.06v-4.93
		c0-1.24-0.44-2.08-1.55-2.08c-0.85,0-1.35,0.57-1.57,1.12c-0.08,0.2-0.1,0.47-0.1,0.75v5.14H9.8c0,0,0.04-8.34,0-9.21h3.06v1.3
		c0.41-0.63,1.13-1.52,2.76-1.52c2.01,0,3.52,1.32,3.52,4.14V18.08z"/>
</g>
</svg>
