<?xml version="1.0" encoding="utf-8"?>
<!-- Generator: Adobe Illustrator 23.0.1, SVG Export Plug-In . SVG Version: 6.00 Build 0)  -->
<svg version="1.1" id="Layer_1" xmlns="http://www.w3.org/2000/svg" xmlns:xlink="http://www.w3.org/1999/xlink" x="0px" y="0px"
	 viewBox="0 0 24.2 22.41" style="enable-background:new 0 0 24.2 22.41;" xml:space="preserve">
<style type="text/css">
	.st0{fill:#FFFFFF;}
</style>
<path class="st0" d="M1.95,7.17l0.82,1.08c0,0,1.7-1.34,2.27-0.67c0.57,0.67,2.73,8.76,3.45,10.25c0.63,1.31,2.37,3.04,4.27,1.8
	c1.91-1.24,8.24-6.64,9.37-13.03c1.13-6.38-7.62-5.05-8.55,0.51c2.32-1.39,3.55,0.57,2.37,2.78c-1.18,2.21-2.27,3.66-2.83,3.66
	c-0.57,0-1-1.48-1.65-4.07c-0.67-2.68-0.67-7.5-3.45-6.95C5.4,3.05,1.95,7.17,1.95,7.17z"/>
</svg>
